<svg xmlns="http://www.w3.org/2000/svg" width="512" height="512" data-name="Layer 1" viewBox="0 0 24 24">
  <path d="M24 13a3 3 0 0 0-3-3h-.478L15.84 3.285A3 3 0 0 0 13.379 2h-7a3.016 3.016 0 0 0-2.804 1.937l-2.6 6.848A2.994 2.994 0 0 0 0 13v5h2v.5a3.5 3.5 0 0 0 7 0V18h6v.5a3.5 3.5 0 0 0 7 0V18h2Zm-9.8-8.572L18.084 10H11V4h2.379a1 1 0 0 1 .821.428Zm-8.753.217A1 1 0 0 1 6.381 4H9v6H3.416ZM7 18.5a1.5 1.5 0 0 1-3 0V18h3Zm13 0a1.5 1.5 0 0 1-3 0V18h3Zm2-2.5H2v-3a1 1 0 0 1 1-1h18a1 1 0 0 1 1 1Z"/>
</svg>