<svg xmlns="http://www.w3.org/2000/svg" data-name="Layer 1" viewBox="0 0 24 24">
  <path d="M3.688 24h-.095a3.664 3.664 0 0 1-2.649-1.224c-1.269-1.409-1.157-3.784.244-5.185l5.868-5.867c.253-.254.344-.631.241-1.009a8.482 8.482 0 0 1-.102-4.036C7.903 3.364 10.626.735 13.972.137A8.482 8.482 0 0 1 16.974.13a1.914 1.914 0 0 1 1.52 1.325c.251.799-.003 1.681-.682 2.359l-2.247 2.217c-.658.658-.758 1.69-.222 2.345.308.378.742.598 1.222.622a1.7 1.7 0 0 0 1.271-.489l2.58-2.55a2.044 2.044 0 0 1 2.07-.501 2.01 2.01 0 0 1 1.385 1.567 8.559 8.559 0 0 1-.007 3.003c-.6 3.347-3.229 6.07-6.544 6.777a8.468 8.468 0 0 1-4.036-.103c-.377-.104-.754-.012-1.008.241L6.3 22.918a3.708 3.708 0 0 1-2.612 1.081ZM15.61 1.993c-.422 0-.854.035-1.286.112-2.554.457-4.634 2.463-5.174 4.991a6.49 6.49 0 0 0 .076 3.093c.29 1.062 0 2.191-.756 2.948l-5.868 5.867c-.65.65-.732 1.81-.171 2.433.315.35.747.55 1.215.562.461.019.909-.163 1.241-.494l5.975-5.975c.755-.755 1.885-1.047 2.948-.757 1.004.274 2.045.3 3.093.076 2.528-.539 4.534-2.618 4.992-5.174a6.54 6.54 0 0 0 .006-2.301v-.007l-2.655 2.559a3.622 3.622 0 0 1-2.781 1.068 3.693 3.693 0 0 1-2.669-1.353c-1.179-1.439-1.021-3.649.361-5.03l2.247-2.217c.179-.18.191-.314.184-.341a7.964 7.964 0 0 0-.976-.062Z"/>
</svg>